<?xml version="1.0" standalone="no"?>
<!DOCTYPE svg PUBLIC "-//W3C//DTD SVG 20010904//EN"
 "http://www.w3.org/TR/2001/REC-SVG-20010904/DTD/svg10.dtd">
<svg version="1.0" xmlns="http://www.w3.org/2000/svg"
 width="276.000000pt" height="288.000000pt" viewBox="0 0 276.000000 288.000000"
 preserveAspectRatio="xMidYMid meet">
<metadata>
Created by potrace 1.16, written by Peter Selinger 2001-2019
</metadata>
<g transform="translate(0.000000,288.000000) scale(0.100000,-0.100000)"
fill="#000000" stroke="none">
<path d="M0 1440 l0 -1440 1380 0 1380 0 0 1440 0 1440 -740 0 -740 0 6 -28
c4 -15 11 -35 15 -44 13 -25 70 -250 65 -255 -3 -3 -10 15 -16 38 -14 55 -84
261 -94 277 -10 17 -29 15 -22 -3 3 -9 0 -15 -9 -15 -9 0 -12 6 -8 17 6 14 1
15 -38 9 -62 -10 -316 -95 -329 -111 -6 -7 37 5 96 27 111 41 233 73 242 63
11 -11 -56 -81 -106 -111 -85 -52 -153 -68 -277 -68 -61 0 -130 5 -154 13
l-44 12 44 45 c28 29 77 62 133 89 l90 44 -437 1 -437 0 0 -1440z m630 1315
c-24 -25 -46 -45 -49 -45 -3 0 15 20 39 45 24 25 46 45 49 45 3 0 -15 -20 -39
-45z m27 -91 c-3 -3 -12 -4 -19 -1 -8 3 -5 6 6 6 11 1 17 -2 13 -5z m720 -16
c-3 -8 -6 -5 -6 6 -1 11 2 17 5 13 3 -3 4 -12 1 -19z m-670 6 c-3 -3 -12 -4
-19 -1 -8 3 -5 6 6 6 11 1 17 -2 13 -5z m210 0 c-3 -3 -12 -4 -19 -1 -8 3 -5
6 6 6 11 1 17 -2 13 -5z m-94 -11 c-13 -2 -35 -2 -50 0 -16 2 -5 4 22 4 28 0
40 -2 28 -4z m564 -35 c-3 -8 -6 -5 -6 6 -1 11 2 17 5 13 3 -3 4 -12 1 -19z
m10 -60 c-3 -7 -5 -2 -5 12 0 14 2 19 5 13 2 -7 2 -19 0 -25z m-47 -33 c0 -10
-10 -15 -27 -15 -25 0 -168 -29 -218 -44 -11 -4 -6 0 10 8 17 8 71 22 120 31
50 10 94 22 100 26 13 12 15 11 15 -6z m369 -19 c80 -22 164 -63 219 -109 47
-40 128 -131 143 -162 6 -11 0 -6 -13 10 -60 80 -154 165 -216 198 -96 50
-169 67 -319 74 -73 3 -133 9 -133 12 0 12 257 -7 319 -23z m-129 -26 c178
-19 279 -67 390 -187 67 -72 143 -203 174 -298 59 -184 59 -391 -1 -580 -26
-79 -26 -80 -35 -47 -7 25 -18 37 -43 48 -19 8 -41 14 -49 14 -19 0 -42 -35
-51 -77 -5 -27 -2 -34 21 -50 17 -11 44 -17 70 -16 l42 1 -34 -61 c-128 -226
-295 -343 -560 -393 -133 -24 -333 -15 -434 20 -108 38 -108 38 -77 75 25 30
27 61 4 61 -6 0 -26 -14 -44 -31 -32 -32 -32 -32 -60 -14 -15 10 -49 38 -75
63 l-47 44 14 34 c14 34 11 64 -5 64 -5 0 -16 7 -25 16 -9 9 -30 17 -47 18
-28 1 -35 8 -60 57 -15 31 -37 91 -50 134 l-23 78 45 39 c25 22 71 57 103 79
57 40 73 69 39 69 -19 0 -115 -63 -166 -109 l-28 -26 4 135 c4 118 9 147 37
230 41 122 96 223 178 328 133 171 303 256 558 281 126 12 129 12 235 1z
m-563 -50 c-61 -31 -103 -58 -148 -94 -14 -12 -6 -3 17 19 41 38 156 105 178
105 6 -1 -15 -14 -47 -30z m-187 -133 c0 -2 -17 -19 -37 -38 l-38 -34 34 38
c33 34 41 42 41 34z m-70 -81 c0 -2 -8 -10 -17 -17 -16 -13 -17 -12 -4 4 13
16 21 21 21 13z m-80 -116 c-6 -11 -13 -20 -16 -20 -2 0 0 9 6 20 6 11 13 20
16 20 2 0 0 -9 -6 -20z m-42 -75 c-6 -14 -13 -23 -15 -21 -5 5 15 46 22 46 3
0 -1 -11 -7 -25z m1569 -127 c-3 -8 -6 -5 -6 6 -1 11 2 17 5 13 3 -3 4 -12 1
-19z m10 -70 c-3 -7 -5 -2 -5 12 0 14 2 19 5 13 2 -7 2 -19 0 -25z m-1670 -80
c-3 -7 -5 -2 -5 12 0 14 2 19 5 13 2 -7 2 -19 0 -25z m-10 -90 c-2 -13 -4 -3
-4 22 0 25 2 35 4 23 2 -13 2 -33 0 -45z m1696 37 c-7 -21 -13 -19 -13 6 0 11
4 18 10 14 5 -3 7 -12 3 -20z m-16 -127 c-3 -7 -5 -2 -5 12 0 14 2 19 5 13 2
-7 2 -19 0 -25z m-1680 -60 c-2 -13 -4 -3 -4 22 0 25 2 35 4 23 2 -13 2 -33 0
-45z m1660 -50 c-3 -8 -6 -5 -6 6 -1 11 2 17 5 13 3 -3 4 -12 1 -19z m-1637
-58 c0 -5 -2 -10 -4 -10 -3 0 -8 5 -11 10 -3 6 -1 10 4 10 6 0 11 -4 11 -10z
m1750 -13 c0 -2 -10 -12 -22 -23 l-23 -19 19 23 c18 21 26 27 26 19z m-135
-27 c3 -5 1 -10 -4 -10 -6 0 -11 5 -11 10 0 6 2 10 4 10 3 0 8 -4 11 -10z
m-1698 -62 c-3 -7 -5 -2 -5 12 0 14 2 19 5 13 2 -7 2 -19 0 -25z m1649 -35
c-8 -15 -15 -25 -16 -21 0 12 23 58 27 54 3 -2 -2 -17 -11 -33z m-1576 -108
c13 -14 21 -25 18 -25 -2 0 -15 11 -28 25 -13 14 -21 25 -18 25 2 0 15 -11 28
-25z m103 -16 c-8 -8 -13 -8 -17 0 -4 6 -2 11 4 11 6 0 8 6 4 13 -6 10 -4 10
7 0 9 -10 10 -16 2 -24z m1367 -53 c0 -2 -8 -10 -17 -17 -16 -13 -17 -12 -4 4
13 16 21 21 21 13z m-40 -49 c0 -2 -17 -19 -37 -38 l-38 -34 34 38 c33 34 41
42 41 34z m-1167 -72 c39 -36 75 -65 79 -65 4 0 8 -6 8 -13 0 -7 -34 18 -76
57 -42 39 -86 74 -97 78 -18 5 -19 6 -4 7 11 1 51 -28 90 -64z m1064 -23 c-10
-10 -14 -23 -10 -28 4 -5 1 -3 -7 3 -12 11 -11 15 6 28 26 20 30 19 11 -3z
m-46 -59 c12 -16 12 -17 -1 -7 -8 6 -22 14 -30 17 -13 5 -12 6 1 6 9 1 23 -7
30 -16z m-56 -3 c-3 -5 -12 -10 -18 -10 -7 0 -6 4 3 10 19 12 23 12 15 0z
m-208 -76 c-3 -3 -12 -4 -19 -1 -8 3 -5 6 6 6 11 1 17 -2 13 -5z m-420 -10
c-3 -3 -12 -4 -19 -1 -8 3 -5 6 6 6 11 1 17 -2 13 -5z m366 -1 c-7 -2 -19 -2
-25 0 -7 3 -2 5 12 5 14 0 19 -2 13 -5z m-300 -10 c-7 -2 -19 -2 -25 0 -7 3
-2 5 12 5 14 0 19 -2 13 -5z m230 0 c-7 -2 -19 -2 -25 0 -7 3 -2 5 12 5 14 0
19 -2 13 -5z m-643 -383 c0 -11 -4 -20 -9 -20 -5 0 -7 9 -4 20 3 11 7 20 9 20
2 0 4 -9 4 -20z m1215 -20 c3 -5 1 -10 -4 -10 -6 0 -11 5 -11 10 0 6 2 10 4
10 3 0 8 -4 11 -10z"/>
<path d="M1582 2078 c-14 -14 -16 -116 -2 -152 11 -29 35 -34 44 -10 9 25 7
120 -4 148 -11 29 -20 32 -38 14z"/>
<path d="M1330 2040 c-14 -51 3 -150 25 -150 48 0 46 172 -2 187 -7 3 -17 -13
-23 -37z"/>
<path d="M1309 1764 c-13 -7 -18 -13 -11 -14 7 0 12 -15 12 -42 1 -92 63 -168
138 -168 75 0 148 65 174 154 7 23 19 47 28 54 13 12 13 13 -5 7 -73 -24 -119
-28 -185 -18 -38 6 -82 18 -98 26 -25 12 -33 12 -53 1z m97 -30 c34 -10 81
-14 124 -12 60 3 70 1 70 -13 0 -33 -104 -38 -210 -11 -55 14 -66 21 -68 41
-3 19 0 22 12 18 9 -4 41 -14 72 -23z"/>
</g>
</svg>
